<svg xmlns="http://www.w3.org/2000/svg" viewBox="0 0 2256.46 1712.4"><defs><style>.cls-1{fill:#eef4ff;}.cls-2{fill:#eaeaea;}.cls-3{fill:#f2d264;}.cls-4{fill:#434142;}.cls-5{fill:#163560;}.cls-6{fill:#d86036;}.cls-7{fill:#f4f4f4;}.cls-8{fill:#ffcb05;}.cls-9{fill:#ffb27d;}.cls-10{fill:#c1c1c1;}.cls-11{fill:#e8945b;}.cls-12{fill:#fff;}.cls-13{fill:#233862;}</style></defs><g id="Layer_2" data-name="Layer 2"><g id="_лой_1" data-name="‘лой_1"><path class="cls-1" d="M1963.4,1228.3c-215.74,266.46-153.22,604.19-850.32,411.62-234.39-64.75-278.26,24.91-544.67,65.43-390,59.31-534.55-267.22-563.41-552C-7,1035,3.63,947.55,25.66,878.6h0S98,916,94.81,976c0,0,69.43-22.6,124.65,25.78,0,0,80.47-59.42,187.77,0S449.83,1185,449.83,1185s60,2.48,74.16,62.43c0,0,76.84-46.45,127.57,17.81,50,63.27,4.69,163.74-79.57,187.83,18.34-4.58,97.43-19.64,140.15,48.4,0,0,70.64-72.58,144,0,0,0,81-26.11,114.55,45.7,0,0,48.6-86.27,148.57-54.71s103.33,103.1,103.33,103.1,26.23-52.6,92.44-37.87c0,0-24.76-124.14,105.92-155.7,0,0,12.86-101,125.43-92.57,0,0,43.14-46.56,93.63-33.8C1640,1275.57,1790.09,1120.12,1963.4,1228.3Z"/><path class="cls-2" d="M2238.52,894c-26.55,78.92-84.17,162.13-183.22,242.13a613.65,613.65,0,0,0-91.9,92.16c-38.41,47.44-68,97.13-94.62,145.7-122.94,224.21-182.71,424.21-755.7,265.92-227.71-62.9-275.6,19.92-522.41,61.86q-10.87,1.83-22.26,3.57c-68.48,10.42-129.39,8.93-183.42-2.12-68.39-14-125.79-43.33-173.61-83.31-94.86-79.31-152.07-200.48-182.76-327A1035.93,1035.93,0,0,1,5,1153.36q-4-39.22-4.75-74.08c-2-82,8.25-147,25.41-200.68h0q3.2-10,6.68-19.44,3.8-10.3,7.91-20l0-.06c66.28-156.91,191.3-210.81,193.52-360.92C239.69,80.6,539.51,11.58,777.42,58.22c504.08,98.83,488.83-103.72,850.77-48.5,662.69,101.1,205.17,363.94,482.63,524.11C2221.61,597.78,2291.21,737.43,2238.52,894Z"/><path class="cls-3" d="M2238.52,894c-26.55,78.92-84.17,162.13-183.22,242.13-333.73,269.55-161.14,719.55-942.22,503.78-234.39-64.75-278.26,24.91-544.67,65.43-390,59.31-534.55-267.22-563.41-552C-8.15,1023.62,5.89,931,32.35,859.15l7.91-20,0-.06s87-8.79,118.55,65.6c0,0,28.41-45.89,82.06-29.94S283,934.87,283,934.87s83.41-58.08,157.79,17.88,29.46,184.1,29.46,184.1,69.43-4.78,90.47,48.1c0,0,99.74-43.33,162.43,14.25s128.62,111,128.62,111,71,18.11,65.66,106.47c0,0,52.46-40,125.59-18.93,0,0,12.58-91,137.54-110.75s181.07,14,181.07,14,2-83.17,98.1-92.07c0,0-2.74-128.85,140.33-142.52s173,61.35,173,61.35,18.45-59.82,115.23-55.85c0,0,18.93-110.52,145.17-104.82,0,0,29.46-55.31,92.57-36.38C2126,930.66,2170.64,855.69,2238.52,894Z"/><path class="cls-4" d="M1524.12,327.36s-26.59-27.08-76-6.81-35,75-73.71,62.23-76.34-11.42-79.68,21.9c-5,49.41-28.4,30.73-43.7,75.13-13.8,40,2,57.79,31.19,45.64,41.54-17.32,9.66,26.55,68.47,34.66s129.93-42.26,140.67-76.9,27.37-53.45,40.07-67.66S1560.58,355.27,1524.12,327.36Z"/><path class="cls-5" d="M1223.9,692.6l-1.26,11.32a8.05,8.05,0,0,0,3.92,7.82L1244,722a15.37,15.37,0,0,0,11.09,1.76l16.57-3.63Z"/><path class="cls-6" d="M1382,749.33l-54.1-31.16A10.44,10.44,0,0,1,1324,704l106.41-184.72c10.57-18.36,44.89-43.22,63.24-32.64l5.32,3.06c18.4,10.6,14.13,52.82,3.53,71.22L1396.16,745.51A10.43,10.43,0,0,1,1382,749.33Z"/><polygon class="cls-4" points="1383.35 457.36 1511.63 458.95 1344.98 722.91 1275.22 702.93 1383.35 457.36"/><path class="cls-4" d="M1271.63,720.09l-54.1-31.16a10.43,10.43,0,0,1-3.82-14.21L1320.11,490c10.57-18.36,44.89-43.22,63.24-32.65l5.32,3.07c18.4,10.6,14.13,52.82,3.53,71.22L1285.84,716.27A10.43,10.43,0,0,1,1271.63,720.09Z"/><path class="cls-7" d="M1244,722l-.72,1.07-7.13,10.7L590.67,1701.78q-10.87,1.83-22.26,3.57c-68.48,10.42-129.39,8.93-183.42-2.12-68.39-14-125.79-43.33-173.61-83.31L455.8,1401.26l417.6-373.6,80.78-72.26,272.38-243.66,9.54,5.59h0l.32.18Z"/><path class="cls-4" d="M1403.65,1000s-29.19,4.21-58.62,28.43c-15.79,13-36.16,26.32-41.22,20.32-2.44-2.89-4.12-21.82,16.8-35.72,20.08-13.34,15.38-41.52,35-44.94,13.39-2.35,13,11.17,45-1.07Z"/><path class="cls-8" d="M1609.68,920.35c-5.64,50-225.81,91.17-225.81,91.17s-6.34-29.59,11.42-44.21c0,0,50.36-37,73.68-51.22,27.76-16.92,48-19.76,48-19.76-.34-2-8.33-4.87-20.32-8.68h0c-37.18-11.8-112.7-32.14-117.72-59.11a35.09,35.09,0,0,1-.5-7.85c1.41-37.29,50.59-99,50.59-99L1477,705.11s7.11,52.86,23.41,65.63S1615.32,870.37,1609.68,920.35Z"/><path class="cls-8" d="M1496.69,887.65h0c-37.18-11.8-112.7-32.14-117.72-59.11a35.09,35.09,0,0,1-.5-7.85c4.56-10.47,13.26-20.44,24.44-23.85,22.29-6.8,19,43,43.73,58S1496.69,887.65,1496.69,887.65Z"/><path class="cls-9" d="M1529.43,470.57s129.07-36.42,147.91-44.69,80-88.18,80-88.18l17.76,10.39s-19.14,74.62-74.37,113.08c-21.55,15-142.86,62.61-142.86,62.61Z"/><path class="cls-4" d="M1099.45,1108s-18.94,20-26.62,39-18.93,40.52-26.26,37.72c-3.53-1.36-14.15-17.12-2.56-39.4,11.13-21.38-6.6-43.78,8.9-56.26,10.6-8.52,16.79,3.5,38.89-22.69Z"/><path class="cls-8" d="M1484.25,723.82S1346,899.35,1285.43,953.63c-32.16,28.82-184.7,156.33-184.7,156.33s-10.47-10.36-13.68-19.35c-6.31-17.69-1-28.51-1-28.51s65.06-127,126.77-163.51c42.77-25.32,68.83-183.11,160.64-237.09S1484.25,723.82,1484.25,723.82Z"/><path class="cls-10" d="M1557.61,612.86c-43.19,88.44-54.5,130.23-69.74,139.31s-162.07-12.52-174.37-34.64c-3.26-5.87-2.2-12.52,1.51-19.79h0c10.31-20.18,41.11-45.07,57.06-70.77a346.93,346.93,0,0,0,23.49-43.89c27.1-62,5-79.32,18.21-87.48,23.07-14.28,130.65-45.71,164.56-34.13,16.61,5.68-4.62,39.89-3.08,68.07C1577.19,564.92,1571.18,585.07,1557.61,612.86Z"/><path class="cls-9" d="M1407.34,500.12s-98.08,67.28-119.49,102.47-52.74,117.32-52.74,117.32,1.13,5.28,19.71,2.15c0,0,61.35-92.12,71-101.38S1421,564.49,1421,564.49Z"/><path class="cls-10" d="M1607.1,494c-4.47,12.77-14,27.82-31.54,43.18l-46.76-74.82s49-8,76.17-13.56C1605,448.79,1616.42,467.34,1607.1,494Z"/><path class="cls-10" d="M1482.74,471.09s-46.68,6.69-82.28,26.89c-14.76,8.38-52.81,41.76-52.81,41.76s10.62,34.73,54.28,45.17,34.34-73.33,34.34-73.33Z"/><path class="cls-9" d="M1756.71,338.49s7-41.68,15.87-41.16,15.55,14.45,16.74,22.32-14.85,29.22-14.85,29.22Z"/><path class="cls-9" d="M1257,725.66s3.39,19.11.38,26.82-11.68,13.79-17.66,13.3,4.14-14.51.29-22.44-10.65-24.76.58-28.79S1257,725.66,1257,725.66Z"/><path class="cls-10" d="M1408.16,599.44c-1,20.72-22.34,60.68-46.53,68.42-23.8,7.61-45.91,29.19-46.6,29.87,10.31-20.18,41.11-45.07,57.06-70.77a346.93,346.93,0,0,0,23.49-43.89C1401.32,582.43,1408.82,585.15,1408.16,599.44Z"/><path class="cls-9" d="M1254.83,719.23s4.39,12.27,6.9,16.44-7.17-2-9.57-6S1254.83,719.23,1254.83,719.23Z"/><path class="cls-4" d="M1447.77,548.7c-12.78,38.62-48.16,53.94-62.92,58.78-3,1-5.16,1.53-6.09,1.75l-.43.1-3.92-17.65a76.94,76.94,0,0,0,11.82-4.08h0c13.82-5.87,35.88-18.93,44.37-44.6,11.73-35.44-18.28-60.25-22.11-63.22a198.35,198.35,0,0,1,21.41-4.68C1444.06,490.74,1458.12,517.46,1447.77,548.7Z"/><path class="cls-4" d="M1514.89,470.44s49.6,6.42,60.67,66.73c0,0,10.93-3.92,13.16-13.16,0,0-13.59-53.54-65.7-63-3-.55-15.38-3.81-15.38-3.81l-.48,2.81s.24,7.15.61,8S1514.89,470.44,1514.89,470.44Z"/><path class="cls-9" d="M1459.85,475.2c4-10.21,7.37-25.36,7.86-44.46l2.76.63L1516.83,442s-1.5,14.64-1.94,28.46c0,.12,0,.23,0,.35C1513.4,513.32,1456.54,483.67,1459.85,475.2Z"/><path class="cls-11" d="M1516.83,442l-1.22,14.61c-26.07-1.51-39.88-11.86-45.14-25.22Z"/><path class="cls-9" d="M1527.89,441.64s-59.89,15.14-68.75-22.3-22.54-60.71,15.32-72,48.7,1.28,54.7,13.06S1543.24,436.74,1527.89,441.64Z"/><path class="cls-4" d="M1501.63,340s-6.12,47.81-29.86,60.25-36.28,8.25-36.28,8.25,15.75-19.95,13.45-47.77C1448.94,360.75,1484.29,322,1501.63,340Z"/><path class="cls-4" d="M1498.39,344.55s13.28,1.69,20.4,9.41A62.24,62.24,0,0,1,1535,386.43s5.37-32.78-12.54-46.39C1503.47,325.6,1498.39,344.55,1498.39,344.55Z"/><path class="cls-12" d="M1510.91,422.17s2.08,4.17,12.9.91c0,0,9.08-2.74,7.66-7.53C1531.47,415.55,1521.72,414.21,1510.91,422.17Z"/><path class="cls-7" d="M590.83,825.47l-2,8.53-8.93,38h0L553.68,983.89l-48.19,205.5L455.8,1401.26l-70.81,302c-68.39-14-125.79-43.33-173.61-83.31-94.86-79.31-152.07-200.48-182.76-327L554,806l.13.07,16.46,8.71,2,1.07L588,824l.27.14Z"/><path class="cls-4" d="M806.07,1208.21s-35.79,10.1-68.55,45.25c-17.57,18.85-40.82,38.88-48.14,32.23-3.52-3.21-8.76-26.59,15.08-47.43,22.87-20,12.34-54.43,36.27-62,16.35-5.15,18.11,11.81,56.07-8.8Z"/><path class="cls-10" d="M994.55,1049.32c-2.07,57.44-201.07,181.11-201.07,181.11s-21.52-12.23-20.82-58.81c0,0,64.7-91.36,104.63-122.59,6.38-5,6.37-14.64-10.61-26.88h0A132.82,132.82,0,0,0,847.54,1011s-75.68-36.79-122.17-67.6a238.63,238.63,0,0,1-22.56-16.59C700.65,925,788.9,823.19,788.9,823.19l54.58-18.92s20.36,34.38,36.09,57.23C892.93,880.91,996.75,988,994.55,1049.32Z"/><path class="cls-13" d="M866.67,1022.15A132.82,132.82,0,0,0,847.54,1011s-75.68-36.79-122.17-67.6c6.35-14.23,17.93-33.35,35.58-38,29-7.57,27.49,43.58,43.39,63.18S866,1021.62,866.67,1022.15Z"/><path class="cls-5" d="M555.35,790l-1.43,12.89a9.13,9.13,0,0,0,4.47,8.9l19.82,11.64a17.51,17.51,0,0,0,12.62,2l18.86-4.14Z"/><path class="cls-6" d="M735.29,854.62l-61.6-35.48A11.89,11.89,0,0,1,669.34,803L790.48,592.67c12-20.9,51.11-49.2,72-37.16l6,3.48c21,12.07,16.09,60.14,4,81.08L751.47,850.27A11.87,11.87,0,0,1,735.29,854.62Z"/><polygon class="cls-4" points="736.89 522.22 872.38 526.1 693.2 824.54 613.78 801.79 736.89 522.22"/><path class="cls-4" d="M609.69,821.33,548.1,785.85a11.87,11.87,0,0,1-4.35-16.18L664.89,559.38c12-20.9,51.1-49.2,72-37.16l6.05,3.48c20.94,12.07,16.08,60.14,4,81.08L625.87,817A11.87,11.87,0,0,1,609.69,821.33Z"/><path class="cls-9" d="M903.19,537.26s146.94-41.46,168.39-50.88,91-100.38,91-100.38l20.21,11.82s-21.79,85-84.65,128.74c-24.55,17.09-162.65,71.28-162.65,71.28Z"/><path class="cls-4" d="M417.31,1261.38s-23.89,25.24-33.57,49.14-23.86,51.08-33.1,47.54c-4.45-1.7-17.84-21.57-3.22-49.66,14-27-8.33-55.19,11.22-70.92,13.35-10.74,21.16,4.41,49-28.61Z"/><path class="cls-10" d="M851.75,825.58S694.34,1025.42,625.4,1087.21c-36.61,32.81-210.27,178-210.27,178s-11.92-11.79-15.57-22c-7.19-20.14-1.15-32.45-1.15-32.45s86.13-155.22,143.69-213.14c47.13-47.43,79-181.48,183.52-242.93S851.75,825.58,851.75,825.58Z"/><path class="cls-8" d="M931.57,726.37c-38.24,105.32-50.87,137.25-70.85,140.21C704,889.83,656.84,858.49,642.84,833.3c-3.7-6.67,5.35-24.37,16.24-37.41h0c11.74-23,46.8-51.32,65-80.58a397.18,397.18,0,0,0,26.75-50c30.85-70.56,5.74-90.3,20.73-99.6,26.26-16.25,148.74-52,187.35-38.85,18.9,6.46-5.27,45.41-3.52,77.5C957.56,644.67,945.64,687.64,931.57,726.37Z"/><path class="cls-9" d="M764.2,570.91s-111.66,76.59-136,116.65-60,133.57-60,133.57,1.28,6,22.43,2.45c0,0,69.85-104.89,80.85-115.43s108.3-64,108.3-64Z"/><path class="cls-8" d="M991.61,563.92c-5.09,14.54-15.9,31.68-35.9,49.17L902.47,527.9s55.82-9.07,86.72-15.44C989.19,512.46,1002.22,533.58,991.61,563.92Z"/><path class="cls-8" d="M850,537.85s-53.15,7.62-93.68,30.62C739.55,578,696.24,616,696.24,616s12.09,39.54,61.79,51.43S797.13,584,797.13,584Z"/><path class="cls-9" d="M1161.94,386.89s8-47.45,18.06-46.86,17.71,16.45,19.06,25.41-16.91,33.27-16.91,33.27Z"/><path class="cls-9" d="M593.05,827.67s3.86,21.76.43,30.53-13.3,15.7-20.1,15.15,4.71-16.52.32-25.55-12.11-28.19.67-32.78S593.05,827.67,593.05,827.67Z"/><path class="cls-9" d="M590.57,820.35s5,14,7.86,18.72-8.18-2.32-10.9-6.78S590.57,820.35,590.57,820.35Z"/><path class="cls-8" d="M765.13,684c-1.09,23.58-25.44,69.08-53,77.89-27.11,8.67-52.28,33.24-53.06,34,11.74-23,46.8-51.32,65-80.58a397.18,397.18,0,0,0,26.75-50C757.33,664.61,765.88,667.71,765.13,684Z"/><path class="cls-4" d="M810.22,626.21c-14.55,44-54.83,61.41-71.63,66.92-3.43,1.11-5.88,1.74-6.93,2l-.5.12-4.46-20.1a87.34,87.34,0,0,0,13.46-4.64h0c15.74-6.69,40.85-21.56,50.51-50.77,13.36-40.36-20.81-68.6-25.17-72a228.17,228.17,0,0,1,24.38-5.32C806,560.22,822,590.65,810.22,626.21Z"/><path class="cls-4" d="M886.64,537.12s56.47,7.3,69.07,76c0,0,12.44-4.47,15-15,0,0-15.47-61-74.8-71.74-3.44-.62-17.51-4.33-17.51-4.33l-.54,3.2s.27,8.14.69,9.11S886.64,537.12,886.64,537.12Z"/><path class="cls-9" d="M824,542.53c4.54-11.62,8.39-28.87,8.95-50.62l3.14.72,52.78,12.08s-1.7,16.67-2.2,32.41v.39C884.94,585.93,820.2,552.18,824,542.53Z"/><path class="cls-11" d="M888.84,504.71l-1.38,16.63c-29.68-1.71-45.41-13.5-51.4-28.71Z"/><path class="cls-9" d="M911.38,500.23s-64.13,27.93-80.85-11.61-36.25-62.57,4-82.07,54.63-7.75,63.47,4.09S927.63,492,911.38,500.23Z"/><path class="cls-4" d="M785.64,413.71c-.78-.54-2.33-.75-5.49-.12a13.1,13.1,0,0,1,5.41-3.12c-.45-4.5-.09-12.76,6.9-16.52a9.63,9.63,0,0,0-2.82,7.9c6.39-11.07,23.27-22.23,75.57-31.19,68.93-11.82,57.64,37.1,50.2,44.48s-33-1.17-49,4.25-13.1,29.77-17.81,34.41-4-1.63-12.32-3.12-5.91,11.1-1.7,18.61-3.38,20.76-3.38,20.76L818,481.49c-13.22-8.55-35-53.45-32.88-64.75C785.26,415.74,785.44,414.73,785.64,413.71Z"/><path class="cls-4" d="M1868.78,1374c-122.94,224.21-182.71,424.21-755.7,265.92-227.71-62.9-275.6,19.92-522.41,61.86q-10.87,1.83-22.26,3.57c-68.48,10.42-129.39,8.93-183.42-2.12-68.39-14-125.79-43.33-173.61-83.31-94.86-79.31-152.07-200.48-182.76-327A1035.93,1035.93,0,0,1,5,1153.36q-4-39.22-4.75-74.08s114.46,23.46,132.33,117.31c0,0,26.26-10.37,51.51,12.29s4.21,67.93-31.56,74.75c0,0,92.57,11,79.95,112,0,0,53.5-20,77.25,32.61,0,0,78.44-75.74,185.74-27.35s102,135.71,102,135.71,50.62-40,105.26-6.32,55.7,67.33,55.7,67.33,26.29-29.46,63.11-12.62c0,0,58.91-107.31,203-62.07,0,0,34.94-27.81,74.84-2.57s39.91,55.23,39.91,55.23,91.52-55.23,173.57,28.4c0,0,53.65-25.24,97.83,0,0,0,1.12-83.63,83.4-107.3,0,0-9.25-83.62,94.9-94.66s138.85,52.06,138.85,52.06S1775.15,1374.3,1868.78,1374Z"/></g></g></svg>